<?xml version="1.0" standalone="no"?>
<!DOCTYPE svg PUBLIC "-//W3C//DTD SVG 20010904//EN"
 "http://www.w3.org/TR/2001/REC-SVG-20010904/DTD/svg10.dtd">
<svg version="1.0" xmlns="http://www.w3.org/2000/svg"
 width="512.000000pt" height="512.000000pt" viewBox="0 0 512.000000 512.000000"
 preserveAspectRatio="xMidYMid meet">
<metadata>
Created by potrace 1.14, written by Peter Selinger 2001-2017
</metadata>
<g transform="translate(0.000000,512.000000) scale(0.100000,-0.100000)"
fill="#000000" stroke="none">
<path d="M2385 4933 c-225 -29 -400 -67 -560 -123 -122 -43 -151 -55 -290
-125 -517 -260 -937 -721 -1149 -1263 -58 -148 -124 -404 -140 -542 -3 -25 -8
-72 -12 -105 -9 -76 -9 -374 0 -440 38 -286 89 -490 171 -685 329 -784 1053
-1343 1875 -1449 153 -20 173 -21 325 -21 511 0 957 128 1340 385 135 91 172
121 306 255 152 152 289 341 390 543 109 215 199 519 229 772 5 50 13 112 16
138 7 64 7 351 0 447 -7 86 -11 117 -26 218 l-12 72 -1121 -2 -1122 -3 0 -455
c-1 -250 0 -460 2 -465 3 -8 203 -11 636 -10 348 0 638 -1 645 -3 18 -6 15
-22 -23 -141 -33 -101 -49 -137 -104 -234 -127 -224 -373 -416 -651 -507 -78
-26 -125 -37 -275 -66 -16 -3 -102 -7 -190 -9 -124 -3 -184 1 -265 15 -295 52
-543 183 -761 400 -195 194 -314 399 -384 662 -34 128 -40 185 -40 388 1 191
14 274 66 432 114 340 352 634 653 807 214 122 424 180 666 186 339 8 635 -94
891 -306 l61 -52 336 336 336 336 -35 31 c-155 140 -341 265 -539 362 -221
107 -414 164 -725 214 -46 7 -474 13 -520 7z"/>
</g>
</svg>
